<?xml version="1.0" encoding="UTF-8"?>
<svg id="Layer_1_copy" xmlns="http://www.w3.org/2000/svg" version="1.1" viewBox="0 0 250 18">
  <!-- Generator: Adobe Illustrator 29.3.0, SVG Export Plug-In . SVG Version: 2.1.0 Build 146)  -->
  <defs>
    <style>
      .st0 {
        fill: #005caa;
      }

      .st1 {
        fill: #44ce39;
      }
    </style>
  </defs>
  <g>
    <path class="st1" d="M14.6,10.4l1.4-1.4-1.4-1.4,1.4-1.4-1.4-1.4-1.4-1.4-1.4-1.4-1.4,1.4-1.4-1.4-1.4,1.4-1.4-1.4-1.4,1.4-1.4,1.4-1.4,1.4,1.4,1.4-1.4,1.4,1.4,1.4-1.4,1.4,1.4,1.4,1.4,1.4,1.4,1.4,1.4-1.4,1.4,1.4,1.4-1.4,1.4,1.4,1.4-1.4,1.4-1.4,1.4-1.4-1.4-1.4ZM8.9,11.8l-2.8-2.8,2.8-2.8,2.8,2.8-2.8,2.8Z"/>
    <rect class="st1" x="19.8" y="8" width="9.9" height="2"/>
    <polygon class="st0" points="2 8 2 6 4 6 4 4 5.9 4 5.9 2 7.9 2 9.9 2 11.9 2 13.9 2 15.9 2 17.8 2 19.8 2 21.8 2 23.8 2 25.8 2 27.7 2 29.7 2 31.7 2 33.7 2 35.7 2 35.7 0 33.7 0 31.7 0 29.7 0 27.7 0 25.8 0 23.8 0 21.8 0 19.8 0 17.8 0 15.9 0 13.9 0 11.9 0 9.9 0 7.9 0 5.9 0 4 0 4 2 2 2 2 4 0 4 0 6 0 8 0 10 0 12 0 14 2 14 2 16 4 16 4 18 5.9 18 7.9 18 9.9 18 11.9 18 13.9 18 15.9 18 17.8 18 19.8 18 21.8 18 22.8 18 23.8 18 24.8 18 26.8 18 28.7 18 30.7 18 32.7 18 33.7 18 34.7 18 35.7 18 35.7 16 34.7 16 33.7 16 32.7 16 30.7 16 28.7 16 26.8 16 24.8 16 23.8 16 22.8 16 21.8 16 19.8 16 17.8 16 15.9 16 13.9 16 11.9 16 9.9 16 7.9 16 5.9 16 5.9 14 4 14 4 12 2 12 2 10 2 8"/>
  </g>
  <g>
    <path class="st1" d="M235.4,7.6l-1.4,1.4,1.4,1.4-1.4,1.4,1.4,1.4,1.4,1.4,1.4,1.4,1.4-1.4,1.4,1.4,1.4-1.4,1.4,1.4,1.4-1.4,1.4-1.4,1.4-1.4-1.4-1.4,1.4-1.4-1.4-1.4,1.4-1.4-1.4-1.4-1.4-1.4-1.4-1.4-1.4,1.4-1.4-1.4-1.4,1.4-1.4-1.4-1.4,1.4-1.4,1.4-1.4,1.4,1.4,1.4ZM241.1,6.2l2.8,2.8-2.8,2.8-2.8-2.8,2.8-2.8Z"/>
    <rect class="st1" x="221.5" y="7.7" width="9.9" height="2"/>
    <polygon class="st0" points="248 10 248 12 246 12 246 14 244.1 14 244.1 16 242.1 16 240.1 16 238.1 16 236.1 16 234.1 16 232.2 16 230.2 16 228.2 16 226.2 16 224.2 16 222.3 16 220.3 16 218.3 16 216.3 16 214.3 16 214.3 18 216.3 18 218.3 18 220.3 18 222.3 18 224.2 18 226.2 18 228.2 18 230.2 18 232.2 18 234.1 18 236.1 18 238.1 18 240.1 18 242.1 18 244.1 18 246 18 246 16 248 16 248 14 250 14 250 12 250 10 250 8 250 6 250 4 248 4 248 2 246 2 246 0 244.1 0 242.1 0 240.1 0 238.1 0 236.1 0 234.1 0 232.2 0 230.2 0 228.2 0 227.2 0 226.2 0 225.2 0 223.2 0 221.3 0 219.3 0 217.3 0 216.3 0 215.3 0 214.3 0 214.3 2 215.3 2 216.3 2 217.3 2 219.3 2 221.3 2 223.2 2 225.2 2 226.2 2 227.2 2 228.2 2 230.2 2 232.2 2 234.1 2 236.1 2 238.1 2 240.1 2 242.1 2 244.1 2 244.1 4 246 4 246 6 248 6 248 8 248 10"/>
  </g>
  <g id="Layer_3">
    <g>
      <path class="st1" d="M72.5,10.1l1.4-1.4-1.4-1.4,1.4-1.4-1.4-1.4-1.4-1.4-1.4-1.4-1.4,1.4-1.4-1.4-1.4,1.4-1.4-1.4-1.4,1.4-1.4,1.4-1.4,1.4,1.4,1.4-1.4,1.4,1.4,1.4-1.4,1.4,1.4,1.4,1.4,1.4,1.4,1.4,1.4-1.4,1.4,1.4,1.4-1.4,1.4,1.4,1.4-1.4,1.4-1.4,1.4-1.4-1.4-1.4ZM67,11.6l-2.8-2.8,2.8-2.8,2.8,2.8-2.8,2.8Z"/>
      <rect class="st1" x="77.9" y="7.7" width="9.9" height="2"/>
      <rect class="st1" x="44.6" y="8" width="9.9" height="2"/>
      <rect class="st0" x="35.7" width="62.4" height="2"/>
      <rect class="st0" x="35.7" y="16" width="62.4" height="2"/>
    </g>
  </g>
  <g id="Layer_31">
    <g>
      <path class="st1" d="M135,10.1l1.4-1.4-1.4-1.4,1.4-1.4-1.4-1.4-1.4-1.4-1.4-1.4-1.4,1.4-1.4-1.4-1.4,1.4-1.4-1.4-1.4,1.4-1.4,1.4-1.4,1.4,1.4,1.4-1.4,1.4,1.4,1.4-1.4,1.4,1.4,1.4,1.4,1.4,1.4,1.4,1.4-1.4,1.4,1.4,1.4-1.4,1.4,1.4,1.4-1.4,1.4-1.4,1.4-1.4-1.4-1.4ZM129.4,11.6l-2.8-2.8,2.8-2.8,2.8,2.8-2.8,2.8Z"/>
      <rect class="st1" x="140.3" y="7.7" width="9.9" height="2"/>
      <rect class="st1" x="107" y="8" width="9.9" height="2"/>
      <rect class="st0" x="98.1" width="62.4" height="2"/>
      <rect class="st0" x="98.1" y="16" width="62.4" height="2"/>
    </g>
  </g>
  <g id="Layer_32">
    <g>
      <path class="st1" d="M197.4,10.1l1.4-1.4-1.4-1.4,1.4-1.4-1.4-1.4-1.4-1.4-1.4-1.4-1.4,1.4-1.4-1.4-1.4,1.4-1.4-1.4-1.4,1.4-1.4,1.4-1.4,1.4,1.4,1.4-1.4,1.4,1.4,1.4-1.4,1.4,1.4,1.4,1.4,1.4,1.4,1.4,1.4-1.4,1.4,1.4,1.4-1.4,1.4,1.4,1.4-1.4,1.4-1.4,1.4-1.4-1.4-1.4ZM191.8,11.6l-2.8-2.8,2.8-2.8,2.8,2.8-2.8,2.8Z"/>
      <rect class="st1" x="202.7" y="7.7" width="9.9" height="2"/>
      <rect class="st1" x="169.4" y="8" width="9.9" height="2"/>
      <rect class="st0" x="160.5" width="62.4" height="2"/>
      <rect class="st0" x="160.5" y="16" width="62.4" height="2"/>
    </g>
  </g>
  <g>
    <rect class="st1" x="-24.8" y="8.7" width="5.6" height="2.8"/>
    <rect class="st1" x="-16.7" y="8.7" width="5.5" height="2.8"/>
    <rect class="st0" x="-15.9" y="4.5" width="3.8" height="3.3"/>
    <rect class="st0" x="-23.9" y="4.5" width="3.8" height="3.3"/>
  </g>
</svg>