<?xml version="1.0" encoding="UTF-8"?>
<svg id="Layer_1" xmlns="http://www.w3.org/2000/svg" version="1.1" viewBox="0 0 25 35">
  <!-- Generator: Adobe Illustrator 29.3.0, SVG Export Plug-In . SVG Version: 2.1.0 Build 146)  -->
  <defs>
    <style>
      .st0 {
        fill: #005caa;
      }

      .st1 {
        fill: #44ce39;
      }
    </style>
  </defs>
  <rect class="st0" x="2.5" y="7.4" width="1.2" height="3.5"/>
  <rect class="st0" x="21.2" y="7.4" width="1.2" height="3.5"/>
  <g>
    <g>
      <g>
        <rect class="st1" x="5.8" y="32.7" width="5.8" height="2.3"/>
        <rect class="st0" x="6.8" y="28.5" width="3.9" height="3"/>
      </g>
      <g>
        <rect class="st1" x="13.4" y="32.7" width="5.8" height="2.3"/>
        <rect class="st0" x="14.4" y="28.5" width="3.9" height="3"/>
      </g>
    </g>
    <g>
      <rect class="st1" x="21.2" y="16.4" width="3.8" height="3.4"/>
      <polygon class="st1" points="25 24.7 25 27.9 24 27.9 24 25.8 22.2 25.8 22.2 27.9 21.2 27.9 21.2 24.7 25 24.7"/>
      <rect class="st1" x="22.2" y="20.8" width="1.8" height="3"/>
    </g>
    <g>
      <path class="st0" d="M20.1,16.4v11.1H4.8v-11.1h15.3ZM6.7,18v6.8h11.7v-6.8H6.7Z"/>
      <path d="M17.2,19H7.8v4.6h9.5v-4.6h0Z"/>
      <rect class="st1" x="7.8" y="19" width="9.5" height="4.6"/>
    </g>
    <g>
      <rect class="st1" y="16.4" width="3.8" height="3.4"/>
      <polygon class="st1" points="3.8 24.7 3.8 27.9 2.8 27.9 2.8 25.8 .9 25.8 .9 27.9 0 27.9 0 24.7 3.8 24.7"/>
      <rect class="st1" x=".9" y="20.8" width="1.8" height="3"/>
    </g>
    <g>
      <path class="st1" d="M13.9,0v2.5h-.9v2h7.1v10.1H4.8V4.6h7.2v-2h-.9V0s2.8,0,2.8,0ZM6.7,6.4v5.4h11.7v-5.4H6.7ZM15.7,12.8h-6.4v1h6.4s0-1,0-1Z"/>
      <g>
        <rect class="st0" x="7.8" y="7.4" width="3.3" height="3.2"/>
        <rect class="st0" x="14" y="7.4" width="3.2" height="3.2"/>
      </g>
    </g>
  </g>
</svg>