<?xml version="1.0" encoding="UTF-8"?>
<svg id="Layer_1" xmlns="http://www.w3.org/2000/svg" version="1.1" viewBox="0 0 25 35">
  <!-- Generator: Adobe Illustrator 29.3.0, SVG Export Plug-In . SVG Version: 2.1.0 Build 146)  -->
  <defs>
    <style>
      .st0 {
        fill: #005caa;
      }

      .st1 {
        fill: #44ce39;
      }

      .st2 {
        fill: #4cd145;
      }
    </style>
  </defs>
  <rect class="st1" x="6.6" y="32.5" width="5.3" height="2.5"/>
  <rect class="st1" x="13.2" y="32.5" width="5.2" height="2.5"/>
  <polygon class="st2" points="14.4 0 14.4 2.5 13.2 2.5 13.2 3.8 11.8 3.8 11.8 2.5 10.6 2.5 10.6 0 14.4 0"/>
  <rect class="st0" x="7.9" y="28.9" width="2.7" height="2.5"/>
  <rect class="st0" x="14.4" y="28.9" width="2.7" height="2.5"/>
  <rect class="st1" x="22.4" y="8.1" width="1.3" height="3.7"/>
  <rect class="st1" x="1.3" y="8.1" width="1.3" height="3.6"/>
  <g>
    <rect class="st0" x="21.1" y="16.6" width="3.9" height="3.7"/>
    <polygon class="st1" points="25 25.1 25 28.9 23.7 28.9 23.7 26.4 22.4 26.4 22.4 28.9 21.1 28.9 21.1 25.1 25 25.1"/>
    <rect class="st0" x="22.4" y="21.5" width="1.3" height="2.4"/>
  </g>
  <g>
    <g>
      <path class="st0" d="M21,5v10.4h-5.2v-1.2h-6.7v1.2h-5.1V5h17.1-.1ZM6.6,6.8v6.1h11.9v-6.1s-11.9,0-11.9,0Z"/>
      <g>
        <rect class="st1" x="7.9" y="8.1" width="3.9" height="3.6"/>
        <rect class="st1" x="14.4" y="8.1" width="2.7" height="3.6"/>
      </g>
    </g>
    <g>
      <path class="st0" d="M5.2,16.6h14.4v10.9H5.2v-10.9ZM18.4,19.1H7.9v6.1h10.5v-6.1h0Z"/>
      <rect class="st1" x="9.1" y="20.3" width="8" height="3.8"/>
    </g>
  </g>
  <g>
    <rect class="st0" y="16.6" width="4" height="3.7"/>
    <path class="st1" d="M4,25.1v3.7h-1.3v-2.5h-1.3v2.5H0v-3.7h4Z"/>
    <rect class="st0" x="1.3" y="21.5" width="1.3" height="2.4"/>
  </g>
</svg>