<?xml version="1.0" encoding="UTF-8"?>
<svg id="Layer_2" xmlns="http://www.w3.org/2000/svg" version="1.1" xmlns:xlink="http://www.w3.org/1999/xlink" viewBox="0 0 434.2 433.9">
  <!-- Generator: Adobe Illustrator 29.3.0, SVG Export Plug-In . SVG Version: 2.1.0 Build 146)  -->
  <defs>
    <style>
      .st0 {
        fill: #00cada;
      }

      .st0, .st1, .st2, .st3, .st4, .st5 {
        stroke: #000;
        stroke-miterlimit: 10;
        stroke-width: 3px;
      }

      .st6 {
        font-size: 25.7px;
      }

      .st6, .st7, .st8, .st9, .st10, .st11, .st12 {
        isolation: isolate;
      }

      .st6, .st8, .st9, .st10, .st11, .st12 {
        fill: #fff;
        font-family: Rubik-Regular, Rubik;
      }

      .st1 {
        fill: #7c5ebf;
      }

      .st2 {
        fill: #00d877;
      }

      .st8 {
        font-size: 29.9px;
      }

      .st9 {
        font-size: 27px;
      }

      .st3 {
        fill: #f9d45d;
      }

      .st10 {
        font-size: 35px;
      }

      .st11 {
        font-size: 14px;
      }

      .st4 {
        fill: #033558;
      }

      .st5 {
        fill: #f75d83;
      }

      .st12 {
        font-size: 41px;
      }
    </style>
  </defs>
  <g id="Layer_2-2">
    <g>
      <path class="st5" d="M216.9,217l55.5,207.1c-114.4,30.7-232-37.2-262.6-151.6-4.9-18.3-7.3-36.6-7.3-55.5h214.4Z"/>
      <path class="st3" d="M216.9,217l149,154.2c-27.3,26.3-56.9,43.1-93.4,52.9l-55.5-207.1h-.1Z"/>
      <path class="st0" d="M216.9,217L179.7,5.8c116.6-20.6,227.9,57.3,248.4,173.9,12.9,73.2-8.7,139.8-62.2,191.5l-149-154.2h0Z"/>
      <path class="st1" d="M216.9,217L154.2,11.9c9.1-2.8,16.1-4.5,25.5-6.1l37.3,211.2h-.1Z"/>
      <path class="st2" d="M216.9,217L93.9,41.3c19.4-13.6,37.7-22.5,60.3-29.4l62.7,205.1Z"/>
      <path class="st4" d="M216.9,217H2.5c0-72.5,32-134.1,91.4-175.6l123,175.6h0Z"/>
      <circle cx="216.9" cy="217" r="37.5"/>
      <g class="st7">
        <g class="st7">
          <text class="st9" transform="translate(46.7 139.9) rotate(25)"><tspan x="0" y="0">Бесоёбит</tspan></text>
        </g>
      </g>
      <g class="st7">
        <g class="st7">
          <text class="st6" transform="translate(129.7 54.6) rotate(63.6)"><tspan x="0" y="0">О</tspan></text>
        </g>
        <g class="st7">
          <text class="st6" transform="translate(137.4 70.1) rotate(63.6)"><tspan x="0" y="0">р</tspan></text>
        </g>
        <g class="st7">
          <text class="st6" transform="translate(144.1 83.7) rotate(63.6)"><tspan x="0" y="0">ёт</tspan></text>
        </g>
      </g>
      <g id="_Ест" class="st7">
        <g class="st7">
          <text class="st11" transform="translate(170 41.3) rotate(76.5)"><tspan x="0" y="0">Ест</tspan></text>
        </g>
      </g>
      <g id="_Спит" class="st7">
        <g class="st7">
          <text class="st12" transform="translate(380.6 126.8) rotate(153)"><tspan x="0" y="0">Спит</tspan></text>
        </g>
      </g>
      <g class="st7">
        <g class="st7">
          <text class="st8" transform="translate(310.3 373.5) rotate(-118.9)"><tspan x="0" y="0">С</tspan></text>
        </g>
        <g class="st7">
          <text class="st8" transform="translate(300.7 356) rotate(-118.9)"><tspan x="0" y="0">р</tspan></text>
        </g>
        <g class="st7">
          <text class="st8" transform="translate(292.1 340.6) rotate(-118.9)"><tspan x="0" y="0">ёт</tspan></text>
        </g>
      </g>
      <g id="_Мурчит" class="st7">
        <g class="st7">
          <text class="st10" transform="translate(108 368.8) rotate(-52.4)"><tspan x="0" y="0">Мурчит</tspan></text>
        </g>
      </g>
    </g>
  </g>
</svg>