<?xml version="1.0" encoding="UTF-8"?>
<svg id="Layer_1_copy" data-name="Layer 1 copy" xmlns="http://www.w3.org/2000/svg" viewBox="0 0 80 80">
  <defs>
    <style>
      .cls-1 {
        fill: #4cc4c7;
      }

      .cls-2 {
        fill: #fbb01c;
      }

      .cls-3 {
        fill: #ce2d81;
      }

      .cls-4 {
        fill: #9eaf37;
      }
    </style>
  </defs>
  <path class="cls-2" d="M40,0C17.91,0,0,17.91,0,40s17.91,40,40,40,40-17.91,40-40S62.09,0,40,0ZM40,66.89c-14.85,0-26.89-12.04-26.89-26.89s12.04-26.89,26.89-26.89,26.89,12.04,26.89,26.89-12.04,26.89-26.89,26.89Z"/>
  <path class="cls-3" d="M66.89,40c0,14.85-12.04,26.89-26.89,26.89s-26.89-12.04-26.89-26.89H0c0,22.09,17.91,40,40,40s40-17.91,40-40h-13.11Z"/>
  <path class="cls-4" d="M40,0v13.11c14.85,0,26.89,12.04,26.89,26.89h13.11C80,17.91,62.09,0,40,0Z"/>
  <path class="cls-1" d="M13.11,40c0-7.03,2.72-13.4,7.13-18.19l-9.66-8.9C4.02,20.03,0,29.55,0,40c0,22.09,17.91,40,40,40v-13.11c-14.85,0-26.89-12.04-26.89-26.89Z"/>
</svg>