<?xml version="1.0" encoding="UTF-8"?>
<svg id="Layer_1_copy" xmlns="http://www.w3.org/2000/svg" version="1.1" viewBox="0 0 13 8">
  <!-- Generator: Adobe Illustrator 29.3.0, SVG Export Plug-In . SVG Version: 2.1.0 Build 146)  -->
  <defs>
    <style>
      .st0 {
        fill: #381400;
      }

      .st1 {
        fill: #632800;
      }

      .st2 {
        fill: #231f20;
      }
    </style>
  </defs>
  <g>
    <polygon class="st1" points="1 3 1 4 2 4 3 4 3 6 3 8 4 8 4 6 5 6 5 8 6 8 6 6 7 6 8 6 8 8 9 8 9 6 10 6 10 8 11 8 11 6 11 4 11 2 13 2 13 0 11 0 10 0 9 0 8 0 8 1 7 1 7 2 6 2 5 2 3 2 2 2 2 3 1 3"/>
    <rect class="st1" x="0" y="4" width="1" height="1" transform="translate(1 9) rotate(-180)"/>
  </g>
  <g>
    <polygon class="st1" points="1 3 1 4 2 4 2 4 3 4 3 6 3 8 4 8 4 6 5 6 5 8 6 8 6 6 7 6 8 6 8 8 9 8 9 6 10 6 10 8 11 8 11 6 11 4 11 2 13 2 13 0 11 0 10 0 9 0 8 0 8 1 7 1 7 2 5 2 3 2 2 2 2 3 1 3"/>
    <rect class="st1" x="7" y="2" width="2" height="2" transform="translate(16 6) rotate(-180)"/>
    <rect class="st1" x="9" y="2" width="2" height="2" transform="translate(20 6) rotate(-180)"/>
    <rect class="st1" x="5" y="2" width="2" height="2" transform="translate(12 6) rotate(-180)"/>
    <rect class="st1" x="3" y="2" width="2" height="2" transform="translate(8 6) rotate(-180)"/>
    <rect class="st1" x="7" y="4" width="2" height="2" transform="translate(16 10) rotate(-180)"/>
    <rect class="st1" x="9" y="4" width="2" height="2" transform="translate(20 10) rotate(-180)"/>
    <rect class="st1" x="5" y="4" width="2" height="2" transform="translate(12 10) rotate(-180)"/>
    <rect class="st1" x="3" y="4" width="2" height="2" transform="translate(8 10) rotate(-180)"/>
    <rect class="st1" x="9" y="0" width="2" height="2" transform="translate(20 2) rotate(-180)"/>
    <rect class="st1" x="11" y="0" width="2" height="2" transform="translate(24 2) rotate(-180)"/>
    <rect class="st0" x="10" y="6" width="1" height="2" transform="translate(21 14) rotate(-180)"/>
    <rect class="st1" x="8" y="6" width="1" height="2" transform="translate(17 14) rotate(-180)"/>
    <rect class="st1" x="3" y="6" width="1" height="2" transform="translate(7 14) rotate(-180)"/>
    <rect class="st0" x="5" y="6" width="1" height="2" transform="translate(11 14) rotate(-180)"/>
    <rect class="st2" x="2" y="2" width="1" height="2" transform="translate(5 6) rotate(-180)"/>
    <rect class="st2" x="8" y="0" width="1" height="2" transform="translate(17 2) rotate(-180)"/>
    <rect class="st2" x="7" y="1" width="1" height="3" transform="translate(15 5) rotate(-180)"/>
    <rect class="st2" x="8" y="0" width="2" height="1"/>
    <rect class="st2" x="6" y="2" width="1" height="1" transform="translate(13 5) rotate(-180)"/>
    <rect class="st2" x="1" y="3" width="1" height="1" transform="translate(3 7) rotate(-180)"/>
    <rect class="st2" x="0" y="4" width="1" height="1" transform="translate(1 9) rotate(-180)"/>
  </g>
</svg>