<?xml version="1.0" encoding="UTF-8"?>
<svg id="Layer_1" xmlns="http://www.w3.org/2000/svg" version="1.1" viewBox="0 0 26 26">
  <!-- Generator: Adobe Illustrator 29.3.0, SVG Export Plug-In . SVG Version: 2.1.0 Build 146)  -->
  <defs>
    <style>
      .st0 {
        fill: #34510a;
      }

      .st1 {
        fill: #4e7c13;
      }

      .st2 {
        fill: #90b246;
      }
    </style>
  </defs>
  <polygon class="st1" points="24 10 22 10 22 12 20 12 19 12 19 11.8 19 10 18 10 18 8 20 8 20 6 22 6 22 4 20 4 18 4 18 6 16 6 16 7 14.2 7 14 7 14 6 14 4 16 4 16 2 16 0 14 0 14 2 12 2 12 4 12 6 12 7 11.8 7 10 7 10 8 8 8 8 10 7 10 7 11.8 7 12 6 12 4 12 2 12 2 14 0 14 0 16 2 16 4 16 4 14 6 14 7 14 7 14.2 7 16 8 16 8 18 6 18 6 20 4 20 4 22 6 22 8 22 8 20 10 20 10 19 11.8 19 12 19 12 20 12 22 10 22 10 24 10 26 12 26 12 24 14 24 14 22 14 20 14 19 14.2 19 16 19 16 18 18 18 18 16 19 16 19 14.2 19 14 20 14 22 14 24 14 24 12 26 12 26 10 24 10"/>
  <g>
    <rect class="st0" x="12" y="6" width="2" height="2"/>
    <rect class="st0" x="12" y="18" width="2" height="2"/>
    <rect class="st0" x="6" y="12" width="2" height="2"/>
    <rect class="st0" x="18" y="12" width="2" height="2"/>
    <rect class="st0" x="8" y="8" width="2" height="2"/>
    <rect class="st0" x="7" y="10" width="2" height="2"/>
    <rect class="st0" x="10" y="7" width="2" height="2"/>
    <rect class="st0" x="14" y="7" width="2" height="2"/>
    <rect class="st0" x="16" y="8" width="2" height="2"/>
    <rect class="st0" x="17" y="10" width="2" height="2"/>
    <rect class="st0" x="7" y="14" width="2" height="2"/>
    <rect class="st0" x="8" y="16" width="2" height="2"/>
    <rect class="st0" x="10" y="17" width="2" height="2"/>
    <rect class="st0" x="14" y="17" width="2" height="2"/>
    <rect class="st0" x="16" y="16" width="2" height="2"/>
    <rect class="st0" x="17" y="14" width="2" height="2"/>
    <rect class="st0" x="14" y="11" width="2" height="2"/>
    <rect class="st0" x="10" y="11" width="2" height="2"/>
  </g>
  <rect class="st2" x="11" y="14" width="2" height="2"/>
</svg>